<svg width="744.000000" height="194.000000" viewBox="0 0 744 194" fill="none" xmlns="http://www.w3.org/2000/svg" xmlns:xlink="http://www.w3.org/1999/xlink">
	<desc>
			Created with Pixso.
	</desc>
	<defs/>
	<path id="Route" d="M1.44 16.854L1.44 4.074L7.002 4.074C7.578 4.074 8.106 4.194 8.586 4.434C9.066 4.674 9.48 4.992 9.828 5.388C10.188 5.784 10.464 6.228 10.656 6.72C10.86 7.212 10.962 7.716 10.962 8.232C10.962 8.796 10.86 9.336 10.656 9.852C10.452 10.368 10.158 10.812 9.774 11.184C9.402 11.556 8.964 11.826 8.46 11.994L11.466 16.854L9.198 16.854L6.426 12.408L3.456 12.408L3.456 16.854L1.44 16.854ZM3.456 10.626L6.984 10.626C7.356 10.626 7.686 10.518 7.974 10.302C8.262 10.086 8.49 9.798 8.658 9.438C8.826 9.066 8.91 8.664 8.91 8.232C8.91 7.788 8.814 7.392 8.622 7.044C8.43 6.684 8.178 6.396 7.866 6.18C7.566 5.964 7.236 5.856 6.876 5.856L3.456 5.856L3.456 10.626ZM17.0196 17.034C16.2756 17.034 15.6096 16.908 15.0216 16.656C14.4336 16.392 13.9236 16.032 13.4916 15.576C13.0716 15.12 12.7476 14.604 12.5196 14.028C12.2916 13.44 12.1776 12.816 12.1776 12.156C12.1776 11.496 12.2916 10.872 12.5196 10.284C12.7476 9.696 13.0716 9.18 13.4916 8.736C13.9236 8.28 14.4336 7.926 15.0216 7.674C15.6216 7.41 16.2876 7.278 17.0196 7.278C17.7516 7.278 18.4116 7.41 18.9996 7.674C19.5996 7.926 20.1096 8.28 20.5296 8.736C20.9616 9.18 21.2916 9.696 21.5196 10.284C21.7476 10.872 21.8616 11.496 21.8616 12.156C21.8616 12.816 21.7476 13.44 21.5196 14.028C21.2916 14.604 20.9616 15.12 20.5296 15.576C20.1096 16.032 19.5996 16.392 18.9996 16.656C18.4116 16.908 17.7516 17.034 17.0196 17.034ZM14.2116 12.174C14.2116 12.774 14.3376 13.314 14.5896 13.794C14.8416 14.274 15.1776 14.652 15.5976 14.928C16.0176 15.204 16.4916 15.342 17.0196 15.342C17.5356 15.342 18.0036 15.204 18.4236 14.928C18.8556 14.64 19.1976 14.256 19.4496 13.776C19.7016 13.284 19.8276 12.744 19.8276 12.156C19.8276 11.556 19.7016 11.016 19.4496 10.536C19.1976 10.056 18.8556 9.678 18.4236 9.402C18.0036 9.114 17.5356 8.97 17.0196 8.97C16.4916 8.97 16.0176 9.114 15.5976 9.402C15.1776 9.69 14.8416 10.074 14.5896 10.554C14.3376 11.022 14.2116 11.562 14.2116 12.174ZM23.5277 13.2L23.5277 7.44L25.5077 7.44L25.5077 12.804C25.5077 13.644 25.6577 14.28 25.9577 14.712C26.2697 15.132 26.7197 15.342 27.3077 15.342C27.6797 15.342 28.0397 15.264 28.3877 15.108C28.7477 14.952 29.0717 14.724 29.3597 14.424C29.6597 14.112 29.8997 13.74 30.0797 13.308L30.0797 7.44L32.0597 7.44L32.0597 14.622C32.0597 14.85 32.1017 15.012 32.1857 15.108C32.2697 15.204 32.4077 15.258 32.5997 15.27L32.5997 16.854C32.3957 16.89 32.2277 16.914 32.0957 16.926C31.9637 16.938 31.8377 16.944 31.7177 16.944C31.3577 16.944 31.0577 16.848 30.8177 16.656C30.5777 16.452 30.4397 16.194 30.4037 15.882L30.3677 14.946C29.9477 15.63 29.4017 16.152 28.7297 16.512C28.0577 16.86 27.3197 17.034 26.5157 17.034C25.5317 17.034 24.7877 16.71 24.2837 16.062C23.7797 15.414 23.5277 14.46 23.5277 13.2ZM39.8069 16.368C39.6389 16.452 39.4289 16.542 39.1769 16.638C38.9249 16.734 38.6369 16.818 38.3129 16.89C38.0009 16.962 37.6769 16.998 37.3409 16.998C36.9329 16.998 36.5549 16.926 36.2069 16.782C35.8589 16.638 35.5769 16.41 35.3609 16.098C35.1569 15.774 35.0549 15.36 35.0549 14.856L35.0549 8.97L33.8129 8.97L33.8129 7.44L35.0549 7.44L35.0549 4.344L37.0349 4.344L37.0349 7.44L39.0869 7.44L39.0869 8.97L37.0349 8.97L37.0349 14.226C37.0589 14.55 37.1609 14.79 37.3409 14.946C37.5329 15.102 37.7669 15.18 38.0429 15.18C38.3189 15.18 38.5829 15.132 38.8349 15.036C39.0869 14.94 39.2729 14.862 39.3929 14.802L39.8069 16.368ZM45.3212 17.034C44.5892 17.034 43.9232 16.908 43.3232 16.656C42.7352 16.392 42.2252 16.038 41.7932 15.594C41.3612 15.138 41.0252 14.622 40.7852 14.046C40.5572 13.458 40.4432 12.834 40.4432 12.174C40.4432 11.286 40.6472 10.476 41.0552 9.744C41.4632 9 42.0332 8.406 42.7652 7.962C43.4972 7.506 44.3552 7.278 45.3392 7.278C46.3232 7.278 47.1692 7.506 47.8772 7.962C48.5972 8.406 49.1552 8.994 49.5512 9.726C49.9472 10.458 50.1452 11.244 50.1452 12.084C50.1452 12.228 50.1392 12.366 50.1272 12.498C50.1152 12.618 50.1032 12.72 50.0912 12.804L42.5492 12.804C42.5852 13.356 42.7352 13.842 42.9992 14.262C43.2752 14.67 43.6232 14.994 44.0432 15.234C44.4632 15.462 44.9132 15.576 45.3932 15.576C45.9212 15.576 46.4192 15.444 46.8872 15.18C47.3672 14.916 47.6912 14.568 47.8592 14.136L49.5512 14.622C49.3472 15.078 49.0352 15.492 48.6152 15.864C48.2072 16.224 47.7212 16.512 47.1572 16.728C46.5932 16.932 45.9812 17.034 45.3212 17.034ZM42.4952 11.49L48.1832 11.49C48.1472 10.95 47.9912 10.476 47.7152 10.068C47.4512 9.648 47.1092 9.324 46.6892 9.096C46.2812 8.856 45.8252 8.736 45.3212 8.736C44.8292 8.736 44.3732 8.856 43.9532 9.096C43.5452 9.324 43.2092 9.648 42.9452 10.068C42.6812 10.476 42.5312 10.95 42.4952 11.49Z" fill="#030712" fill-opacity="0.600000" fill-rule="evenodd"/>
	<path id="Dhaka - Sylhet" d="M620.44 16.854L620.44 4.074L624.976 4.074C626.356 4.074 627.508 4.362 628.432 4.938C629.356 5.502 630.046 6.27 630.502 7.242C630.97 8.202 631.204 9.27 631.204 10.446C631.204 11.742 630.946 12.87 630.43 13.83C629.926 14.79 629.206 15.534 628.27 16.062C627.334 16.59 626.236 16.854 624.976 16.854L620.44 16.854ZM629.152 10.446C629.152 9.546 628.984 8.754 628.648 8.07C628.324 7.374 627.85 6.834 627.226 6.45C626.614 6.054 625.864 5.856 624.976 5.856L622.456 5.856L622.456 15.072L624.976 15.072C625.876 15.072 626.632 14.868 627.244 14.46C627.868 14.052 628.342 13.5 628.666 12.804C628.99 12.108 629.152 11.322 629.152 10.446ZM641.515 16.854L639.535 16.854L639.535 11.58C639.535 10.728 639.379 10.092 639.067 9.672C638.755 9.252 638.317 9.042 637.753 9.042C637.405 9.042 637.045 9.138 636.673 9.33C636.301 9.522 635.971 9.786 635.683 10.122C635.395 10.446 635.185 10.824 635.053 11.256L635.053 16.854L633.073 16.854L633.073 3.714L635.053 3.714L635.053 9.33C635.413 8.694 635.905 8.196 636.529 7.836C637.153 7.464 637.825 7.278 638.545 7.278C639.133 7.278 639.619 7.38 640.003 7.584C640.387 7.788 640.687 8.07 640.903 8.43C641.131 8.778 641.287 9.186 641.371 9.654C641.467 10.11 641.515 10.596 641.515 11.112L641.515 16.854ZM643.129 14.1C643.129 13.5 643.297 12.978 643.633 12.534C643.981 12.078 644.455 11.73 645.055 11.49C645.655 11.238 646.351 11.112 647.143 11.112C647.563 11.112 647.989 11.142 648.421 11.202C648.865 11.262 649.255 11.358 649.591 11.49L649.591 10.896C649.591 10.236 649.393 9.72 648.997 9.348C648.601 8.976 648.031 8.79 647.287 8.79C646.759 8.79 646.261 8.886 645.793 9.078C645.325 9.258 644.827 9.516 644.299 9.852L643.633 8.52C644.257 8.1 644.881 7.788 645.505 7.584C646.141 7.38 646.807 7.278 647.503 7.278C648.763 7.278 649.753 7.614 650.473 8.286C651.205 8.946 651.571 9.888 651.571 11.112L651.571 14.622C651.571 14.85 651.607 15.012 651.679 15.108C651.763 15.204 651.901 15.258 652.093 15.27L652.093 16.854C651.913 16.89 651.751 16.914 651.607 16.926C651.463 16.938 651.343 16.944 651.247 16.944C650.827 16.944 650.509 16.842 650.293 16.638C650.077 16.434 649.951 16.194 649.915 15.918L649.861 15.378C649.453 15.906 648.931 16.314 648.295 16.602C647.659 16.89 647.017 17.034 646.369 17.034C645.745 17.034 645.187 16.908 644.695 16.656C644.203 16.392 643.819 16.038 643.543 15.594C643.267 15.15 643.129 14.652 643.129 14.1ZM649.123 14.676C649.267 14.52 649.381 14.364 649.465 14.208C649.549 14.052 649.591 13.914 649.591 13.794L649.591 12.714C649.255 12.582 648.901 12.486 648.529 12.426C648.157 12.354 647.791 12.318 647.431 12.318C646.711 12.318 646.123 12.462 645.667 12.75C645.223 13.038 645.001 13.434 645.001 13.938C645.001 14.214 645.073 14.478 645.217 14.73C645.373 14.982 645.589 15.186 645.865 15.342C646.153 15.498 646.507 15.576 646.927 15.576C647.359 15.576 647.773 15.492 648.169 15.324C648.565 15.156 648.883 14.94 649.123 14.676ZM660.525 16.854L657.501 12.516L655.953 13.992L655.953 16.854L653.973 16.854L653.973 3.714L655.953 3.714L655.953 11.994L660.309 7.458L662.433 7.458L658.779 11.4L662.631 16.854L660.525 16.854ZM663.115 14.1C663.115 13.5 663.283 12.978 663.619 12.534C663.967 12.078 664.441 11.73 665.041 11.49C665.641 11.238 666.337 11.112 667.129 11.112C667.549 11.112 667.975 11.142 668.407 11.202C668.851 11.262 669.241 11.358 669.577 11.49L669.577 10.896C669.577 10.236 669.379 9.72 668.983 9.348C668.587 8.976 668.017 8.79 667.273 8.79C666.745 8.79 666.247 8.886 665.779 9.078C665.311 9.258 664.813 9.516 664.285 9.852L663.619 8.52C664.243 8.1 664.867 7.788 665.491 7.584C666.127 7.38 666.793 7.278 667.489 7.278C668.749 7.278 669.739 7.614 670.459 8.286C671.191 8.946 671.557 9.888 671.557 11.112L671.557 14.622C671.557 14.85 671.593 15.012 671.665 15.108C671.749 15.204 671.887 15.258 672.079 15.27L672.079 16.854C671.899 16.89 671.737 16.914 671.593 16.926C671.449 16.938 671.329 16.944 671.233 16.944C670.813 16.944 670.495 16.842 670.279 16.638C670.063 16.434 669.937 16.194 669.901 15.918L669.847 15.378C669.439 15.906 668.917 16.314 668.281 16.602C667.645 16.89 667.003 17.034 666.355 17.034C665.731 17.034 665.173 16.908 664.681 16.656C664.189 16.392 663.805 16.038 663.529 15.594C663.253 15.15 663.115 14.652 663.115 14.1ZM669.109 14.676C669.253 14.52 669.367 14.364 669.451 14.208C669.535 14.052 669.577 13.914 669.577 13.794L669.577 12.714C669.241 12.582 668.887 12.486 668.515 12.426C668.143 12.354 667.777 12.318 667.417 12.318C666.697 12.318 666.109 12.462 665.653 12.75C665.209 13.038 664.987 13.434 664.987 13.938C664.987 14.214 665.059 14.478 665.203 14.73C665.359 14.982 665.575 15.186 665.851 15.342C666.139 15.498 666.493 15.576 666.913 15.576C667.345 15.576 667.759 15.492 668.155 15.324C668.551 15.156 668.869 14.94 669.109 14.676ZM678.317 12.822L678.317 11.04L683.699 11.04L683.699 12.822L678.317 12.822ZM698.242 7.08C698.122 6.948 697.948 6.81 697.72 6.666C697.492 6.51 697.222 6.366 696.91 6.234C696.598 6.102 696.262 5.994 695.902 5.91C695.542 5.826 695.17 5.784 694.786 5.784C693.946 5.784 693.322 5.94 692.914 6.252C692.506 6.564 692.302 6.996 692.302 7.548C692.302 7.956 692.416 8.28 692.644 8.52C692.872 8.748 693.22 8.94 693.688 9.096C694.156 9.252 694.744 9.42 695.452 9.6C696.316 9.804 697.066 10.05 697.702 10.338C698.338 10.614 698.824 10.986 699.16 11.454C699.496 11.922 699.664 12.54 699.664 13.308C699.664 13.956 699.544 14.514 699.304 14.982C699.064 15.45 698.728 15.834 698.296 16.134C697.864 16.422 697.366 16.638 696.802 16.782C696.238 16.914 695.632 16.98 694.984 16.98C694.348 16.98 693.712 16.914 693.076 16.782C692.452 16.65 691.852 16.458 691.276 16.206C690.712 15.942 690.19 15.624 689.71 15.252L690.628 13.524C690.784 13.68 691.006 13.854 691.294 14.046C691.594 14.226 691.936 14.4 692.32 14.568C692.716 14.736 693.142 14.88 693.598 15C694.066 15.108 694.54 15.162 695.02 15.162C695.824 15.162 696.436 15.024 696.856 14.748C697.288 14.46 697.504 14.052 697.504 13.524C697.504 13.092 697.366 12.75 697.09 12.498C696.814 12.234 696.412 12.012 695.884 11.832C695.356 11.652 694.726 11.472 693.994 11.292C693.154 11.064 692.452 10.818 691.888 10.554C691.324 10.278 690.898 9.93 690.61 9.51C690.334 9.078 690.196 8.532 690.196 7.872C690.196 7.032 690.4 6.324 690.808 5.748C691.216 5.16 691.768 4.722 692.464 4.434C693.172 4.134 693.964 3.984 694.84 3.984C695.416 3.984 695.962 4.05 696.478 4.182C696.994 4.302 697.474 4.47 697.918 4.686C698.374 4.902 698.788 5.148 699.16 5.424L698.242 7.08ZM701.459 19.068C701.639 19.092 701.813 19.116 701.981 19.14C702.161 19.176 702.305 19.194 702.413 19.194C702.617 19.194 702.791 19.128 702.935 18.996C703.091 18.876 703.247 18.648 703.403 18.312C703.559 17.976 703.751 17.49 703.979 16.854L700.109 7.44L702.179 7.44L705.059 14.838L707.615 7.44L709.523 7.44L705.257 19.032C705.125 19.38 704.933 19.698 704.681 19.986C704.429 20.286 704.117 20.52 703.745 20.688C703.373 20.856 702.935 20.94 702.431 20.94C702.287 20.94 702.137 20.928 701.981 20.904C701.825 20.88 701.651 20.844 701.459 20.796L701.459 19.068ZM710.997 3.714L712.977 3.714L712.977 14.136C712.977 14.616 713.049 14.922 713.193 15.054C713.337 15.186 713.517 15.252 713.733 15.252C713.973 15.252 714.195 15.228 714.399 15.18C714.615 15.132 714.801 15.072 714.957 15L715.245 16.566C714.957 16.686 714.615 16.788 714.219 16.872C713.823 16.956 713.469 16.998 713.157 16.998C712.485 16.998 711.957 16.812 711.573 16.44C711.189 16.056 710.997 15.528 710.997 14.856L710.997 3.714ZM724.835 16.854L722.855 16.854L722.855 11.58C722.855 10.728 722.699 10.092 722.387 9.672C722.075 9.252 721.637 9.042 721.073 9.042C720.725 9.042 720.365 9.138 719.993 9.33C719.621 9.522 719.291 9.786 719.003 10.122C718.715 10.446 718.505 10.824 718.373 11.256L718.373 16.854L716.393 16.854L716.393 3.714L718.373 3.714L718.373 9.33C718.733 8.694 719.225 8.196 719.849 7.836C720.473 7.464 721.145 7.278 721.865 7.278C722.453 7.278 722.939 7.38 723.323 7.584C723.707 7.788 724.007 8.07 724.223 8.43C724.451 8.778 724.607 9.186 724.691 9.654C724.787 10.11 724.835 10.596 724.835 11.112L724.835 16.854ZM731.399 17.034C730.667 17.034 730.001 16.908 729.401 16.656C728.813 16.392 728.303 16.038 727.871 15.594C727.439 15.138 727.103 14.622 726.863 14.046C726.635 13.458 726.521 12.834 726.521 12.174C726.521 11.286 726.725 10.476 727.133 9.744C727.541 9 728.111 8.406 728.843 7.962C729.575 7.506 730.433 7.278 731.417 7.278C732.401 7.278 733.247 7.506 733.955 7.962C734.675 8.406 735.233 8.994 735.629 9.726C736.025 10.458 736.223 11.244 736.223 12.084C736.223 12.228 736.217 12.366 736.205 12.498C736.193 12.618 736.181 12.72 736.169 12.804L728.627 12.804C728.663 13.356 728.813 13.842 729.077 14.262C729.353 14.67 729.701 14.994 730.121 15.234C730.541 15.462 730.991 15.576 731.471 15.576C731.999 15.576 732.497 15.444 732.965 15.18C733.445 14.916 733.769 14.568 733.937 14.136L735.629 14.622C735.425 15.078 735.113 15.492 734.693 15.864C734.285 16.224 733.799 16.512 733.235 16.728C732.671 16.932 732.059 17.034 731.399 17.034ZM728.573 11.49L734.261 11.49C734.225 10.95 734.069 10.476 733.793 10.068C733.529 9.648 733.187 9.324 732.767 9.096C732.359 8.856 731.903 8.736 731.399 8.736C730.907 8.736 730.451 8.856 730.031 9.096C729.623 9.324 729.287 9.648 729.023 10.068C728.759 10.476 728.609 10.95 728.573 11.49ZM742.989 16.368C742.82 16.452 742.61 16.542 742.359 16.638C742.107 16.734 741.818 16.818 741.495 16.89C741.182 16.962 740.859 16.998 740.523 16.998C740.115 16.998 739.737 16.926 739.388 16.782C739.041 16.638 738.758 16.41 738.542 16.098C738.339 15.774 738.237 15.36 738.237 14.856L738.237 8.97L736.995 8.97L736.995 7.44L738.237 7.44L738.237 4.344L740.216 4.344L740.216 7.44L742.268 7.44L742.268 8.97L740.216 8.97L740.216 14.226C740.24 14.55 740.343 14.79 740.523 14.946C740.714 15.102 740.948 15.18 741.224 15.18C741.5 15.18 741.765 15.132 742.016 15.036C742.268 14.94 742.454 14.862 742.575 14.802L742.989 16.368Z" fill="#030712" fill-opacity="1.000000" fill-rule="evenodd"/>
	<path id="Departure Time" d="M1.44 85.854L1.44 73.074L5.976 73.074C7.356 73.074 8.508 73.362 9.432 73.938C10.356 74.502 11.046 75.27 11.502 76.242C11.97 77.202 12.204 78.27 12.204 79.446C12.204 80.742 11.946 81.87 11.43 82.83C10.926 83.79 10.206 84.534 9.27 85.062C8.334 85.59 7.236 85.854 5.976 85.854L1.44 85.854ZM10.152 79.446C10.152 78.546 9.984 77.754 9.648 77.07C9.324 76.374 8.85 75.834 8.226 75.45C7.614 75.054 6.864 74.856 5.976 74.856L3.456 74.856L3.456 84.072L5.976 84.072C6.876 84.072 7.632 83.868 8.244 83.46C8.868 83.052 9.342 82.5 9.666 81.804C9.99 81.108 10.152 80.322 10.152 79.446ZM18.3388 86.034C17.6068 86.034 16.9408 85.908 16.3408 85.656C15.7528 85.392 15.2428 85.038 14.8108 84.594C14.3788 84.138 14.0428 83.622 13.8028 83.046C13.5748 82.458 13.4608 81.834 13.4608 81.174C13.4608 80.286 13.6648 79.476 14.0728 78.744C14.4808 78 15.0508 77.406 15.7828 76.962C16.5148 76.506 17.3728 76.278 18.3568 76.278C19.3408 76.278 20.1868 76.506 20.8948 76.962C21.6148 77.406 22.1728 77.994 22.5688 78.726C22.9648 79.458 23.1628 80.244 23.1628 81.084C23.1628 81.228 23.1568 81.366 23.1448 81.498C23.1328 81.618 23.1208 81.72 23.1088 81.804L15.5668 81.804C15.6028 82.356 15.7528 82.842 16.0168 83.262C16.2928 83.67 16.6408 83.994 17.0608 84.234C17.4808 84.462 17.9308 84.576 18.4108 84.576C18.9388 84.576 19.4368 84.444 19.9048 84.18C20.3848 83.916 20.7088 83.568 20.8768 83.136L22.5688 83.622C22.3648 84.078 22.0528 84.492 21.6328 84.864C21.2248 85.224 20.7388 85.512 20.1748 85.728C19.6108 85.932 18.9988 86.034 18.3388 86.034ZM15.5128 80.49L21.2008 80.49C21.1648 79.95 21.0088 79.476 20.7328 79.068C20.4688 78.648 20.1268 78.324 19.7068 78.096C19.2988 77.856 18.8428 77.736 18.3388 77.736C17.8468 77.736 17.3908 77.856 16.9708 78.096C16.5628 78.324 16.2268 78.648 15.9628 79.068C15.6988 79.476 15.5488 79.95 15.5128 80.49ZM30.1238 86.034C29.3678 86.034 28.7018 85.854 28.1258 85.494C27.5498 85.134 27.0938 84.666 26.7578 84.09L26.7578 89.688L24.7778 89.688L24.7778 76.44L26.5238 76.44L26.5238 78.132C26.8838 77.568 27.3518 77.118 27.9278 76.782C28.5038 76.446 29.1458 76.278 29.8538 76.278C30.5018 76.278 31.0958 76.41 31.6358 76.674C32.1758 76.926 32.6438 77.28 33.0398 77.736C33.4358 78.192 33.7418 78.714 33.9578 79.302C34.1858 79.878 34.2998 80.49 34.2998 81.138C34.2998 82.038 34.1198 82.86 33.7598 83.604C33.4118 84.348 32.9198 84.942 32.2838 85.386C31.6598 85.818 30.9398 86.034 30.1238 86.034ZM29.4758 84.342C29.8958 84.342 30.2738 84.252 30.6098 84.072C30.9578 83.892 31.2518 83.652 31.4918 83.352C31.7438 83.052 31.9358 82.71 32.0678 82.326C32.1998 81.942 32.2658 81.546 32.2658 81.138C32.2658 80.706 32.1938 80.298 32.0498 79.914C31.9058 79.53 31.6958 79.194 31.4198 78.906C31.1558 78.618 30.8438 78.39 30.4838 78.222C30.1358 78.054 29.7518 77.97 29.3318 77.97C29.0798 77.97 28.8158 78.018 28.5398 78.114C28.2638 78.21 28.0058 78.342 27.7658 78.51C27.5258 78.678 27.3158 78.876 27.1358 79.104C26.9558 79.332 26.8298 79.572 26.7578 79.824L26.7578 82.29C26.9258 82.674 27.1478 83.022 27.4238 83.334C27.6998 83.634 28.0178 83.88 28.3778 84.072C28.7378 84.252 29.1038 84.342 29.4758 84.342ZM35.3966 83.1C35.3966 82.5 35.5646 81.978 35.9006 81.534C36.2486 81.078 36.7226 80.73 37.3226 80.49C37.9226 80.238 38.6186 80.112 39.4106 80.112C39.8306 80.112 40.2566 80.142 40.6886 80.202C41.1326 80.262 41.5226 80.358 41.8586 80.49L41.8586 79.896C41.8586 79.236 41.6606 78.72 41.2646 78.348C40.8686 77.976 40.2986 77.79 39.5546 77.79C39.0266 77.79 38.5286 77.886 38.0606 78.078C37.5926 78.258 37.0946 78.516 36.5666 78.852L35.9006 77.52C36.5246 77.1 37.1486 76.788 37.7726 76.584C38.4086 76.38 39.0746 76.278 39.7706 76.278C41.0306 76.278 42.0206 76.614 42.7406 77.286C43.4726 77.946 43.8386 78.888 43.8386 80.112L43.8386 83.622C43.8386 83.85 43.8746 84.012 43.9466 84.108C44.0306 84.204 44.1686 84.258 44.3606 84.27L44.3606 85.854C44.1806 85.89 44.0186 85.914 43.8746 85.926C43.7306 85.938 43.6106 85.944 43.5146 85.944C43.0946 85.944 42.7766 85.842 42.5606 85.638C42.3446 85.434 42.2186 85.194 42.1826 84.918L42.1286 84.378C41.7206 84.906 41.1986 85.314 40.5626 85.602C39.9266 85.89 39.2846 86.034 38.6366 86.034C38.0126 86.034 37.4546 85.908 36.9626 85.656C36.4706 85.392 36.0866 85.038 35.8106 84.594C35.5346 84.15 35.3966 83.652 35.3966 83.1ZM41.3906 83.676C41.5346 83.52 41.6486 83.364 41.7326 83.208C41.8166 83.052 41.8586 82.914 41.8586 82.794L41.8586 81.714C41.5226 81.582 41.1686 81.486 40.7966 81.426C40.4246 81.354 40.0586 81.318 39.6986 81.318C38.9786 81.318 38.3906 81.462 37.9346 81.75C37.4906 82.038 37.2686 82.434 37.2686 82.938C37.2686 83.214 37.3406 83.478 37.4846 83.73C37.6406 83.982 37.8566 84.186 38.1326 84.342C38.4206 84.498 38.7746 84.576 39.1946 84.576C39.6266 84.576 40.0406 84.492 40.4366 84.324C40.8326 84.156 41.1506 83.94 41.3906 83.676ZM51.5327 78.15C50.7647 78.162 50.0807 78.336 49.4807 78.672C48.8927 79.008 48.4727 79.482 48.2207 80.094L48.2207 85.854L46.2407 85.854L46.2407 76.44L48.0767 76.44L48.0767 78.546C48.4007 77.898 48.8267 77.382 49.3547 76.998C49.8827 76.602 50.4407 76.386 51.0287 76.35C51.1487 76.35 51.2447 76.35 51.3167 76.35C51.4007 76.35 51.4727 76.356 51.5327 76.368L51.5327 78.15ZM58.2112 85.368C58.0432 85.452 57.8332 85.542 57.5812 85.638C57.3292 85.734 57.0412 85.818 56.7172 85.89C56.4052 85.962 56.0812 85.998 55.7452 85.998C55.3372 85.998 54.9592 85.926 54.6112 85.782C54.2632 85.638 53.9812 85.41 53.7652 85.098C53.5612 84.774 53.4592 84.36 53.4592 83.856L53.4592 77.97L52.2172 77.97L52.2172 76.44L53.4592 76.44L53.4592 73.344L55.4392 73.344L55.4392 76.44L57.4912 76.44L57.4912 77.97L55.4392 77.97L55.4392 83.226C55.4632 83.55 55.5652 83.79 55.7452 83.946C55.9372 84.102 56.1712 84.18 56.4472 84.18C56.7232 84.18 56.9872 84.132 57.2392 84.036C57.4912 83.94 57.6772 83.862 57.7972 83.802L58.2112 85.368ZM59.4925 82.2L59.4925 76.44L61.4725 76.44L61.4725 81.804C61.4725 82.644 61.6225 83.28 61.9225 83.712C62.2345 84.132 62.6845 84.342 63.2725 84.342C63.6445 84.342 64.0045 84.264 64.3525 84.108C64.7125 83.952 65.0365 83.724 65.3245 83.424C65.6245 83.112 65.8645 82.74 66.0445 82.308L66.0445 76.44L68.0245 76.44L68.0245 83.622C68.0245 83.85 68.0665 84.012 68.1505 84.108C68.2345 84.204 68.3725 84.258 68.5645 84.27L68.5645 85.854C68.3605 85.89 68.1925 85.914 68.0605 85.926C67.9285 85.938 67.8025 85.944 67.6825 85.944C67.3225 85.944 67.0225 85.848 66.7825 85.656C66.5425 85.452 66.4045 85.194 66.3685 84.882L66.3325 83.946C65.9125 84.63 65.3665 85.152 64.6945 85.512C64.0225 85.86 63.2845 86.034 62.4805 86.034C61.4965 86.034 60.7525 85.71 60.2485 85.062C59.7445 84.414 59.4925 83.46 59.4925 82.2ZM75.8433 78.15C75.0753 78.162 74.3913 78.336 73.7913 78.672C73.2033 79.008 72.7833 79.482 72.5313 80.094L72.5313 85.854L70.5513 85.854L70.5513 76.44L72.3873 76.44L72.3873 78.546C72.7113 77.898 73.1373 77.382 73.6653 76.998C74.1933 76.602 74.7513 76.386 75.3393 76.35C75.4593 76.35 75.5553 76.35 75.6273 76.35C75.7113 76.35 75.7833 76.356 75.8433 76.368L75.8433 78.15ZM81.3739 86.034C80.6419 86.034 79.9759 85.908 79.3759 85.656C78.7879 85.392 78.2779 85.038 77.8459 84.594C77.4139 84.138 77.0779 83.622 76.8379 83.046C76.6099 82.458 76.4959 81.834 76.4959 81.174C76.4959 80.286 76.6999 79.476 77.1079 78.744C77.5159 78 78.0859 77.406 78.8179 76.962C79.5499 76.506 80.4079 76.278 81.3919 76.278C82.3759 76.278 83.2219 76.506 83.9299 76.962C84.6499 77.406 85.2079 77.994 85.6039 78.726C85.9999 79.458 86.1979 80.244 86.1979 81.084C86.1979 81.228 86.1919 81.366 86.1799 81.498C86.1679 81.618 86.1559 81.72 86.1439 81.804L78.6019 81.804C78.6379 82.356 78.7879 82.842 79.0519 83.262C79.3279 83.67 79.6759 83.994 80.0959 84.234C80.5159 84.462 80.9659 84.576 81.4459 84.576C81.9739 84.576 82.4719 84.444 82.9399 84.18C83.4199 83.916 83.7439 83.568 83.9119 83.136L85.6039 83.622C85.3999 84.078 85.0879 84.492 84.6679 84.864C84.2599 85.224 83.7739 85.512 83.2099 85.728C82.6459 85.932 82.0339 86.034 81.3739 86.034ZM78.5479 80.49L84.2359 80.49C84.1999 79.95 84.0439 79.476 83.7679 79.068C83.5039 78.648 83.1619 78.324 82.7419 78.096C82.3339 77.856 81.8779 77.736 81.3739 77.736C80.8819 77.736 80.4259 77.856 80.0059 78.096C79.5979 78.324 79.2619 78.648 78.9979 79.068C78.7339 79.476 78.5839 79.95 78.5479 80.49ZM101.345 74.856L97.0973 74.856L97.0973 85.854L95.0633 85.854L95.0633 74.856L90.7973 74.856L90.7973 73.074L101.345 73.074L101.345 74.856ZM102.807 85.854L102.807 76.44L104.787 76.44L104.787 85.854L102.807 85.854ZM102.807 74.892L102.807 72.714L104.787 72.714L104.787 74.892L102.807 74.892ZM121.567 85.854L119.587 85.854L119.587 80.58C119.587 79.704 119.443 79.062 119.155 78.654C118.867 78.246 118.447 78.042 117.895 78.042C117.343 78.042 116.827 78.252 116.347 78.672C115.879 79.08 115.549 79.614 115.357 80.274L115.357 85.854L113.377 85.854L113.377 80.58C113.377 79.704 113.233 79.062 112.945 78.654C112.657 78.246 112.243 78.042 111.703 78.042C111.151 78.042 110.635 78.246 110.155 78.654C109.687 79.062 109.351 79.596 109.147 80.256L109.147 85.854L107.167 85.854L107.167 76.44L108.967 76.44L108.967 78.33C109.339 77.67 109.825 77.166 110.425 76.818C111.037 76.458 111.733 76.278 112.513 76.278C113.293 76.278 113.905 76.482 114.349 76.89C114.805 77.298 115.087 77.808 115.195 78.42C115.603 77.724 116.101 77.196 116.689 76.836C117.289 76.464 117.973 76.278 118.741 76.278C119.293 76.278 119.755 76.38 120.127 76.584C120.499 76.788 120.787 77.07 120.991 77.43C121.195 77.778 121.339 78.186 121.423 78.654C121.519 79.11 121.567 79.596 121.567 80.112L121.567 85.854ZM128.114 86.034C127.382 86.034 126.716 85.908 126.116 85.656C125.528 85.392 125.018 85.038 124.586 84.594C124.154 84.138 123.818 83.622 123.578 83.046C123.35 82.458 123.236 81.834 123.236 81.174C123.236 80.286 123.44 79.476 123.848 78.744C124.256 78 124.826 77.406 125.558 76.962C126.29 76.506 127.148 76.278 128.132 76.278C129.116 76.278 129.962 76.506 130.67 76.962C131.39 77.406 131.948 77.994 132.344 78.726C132.74 79.458 132.938 80.244 132.938 81.084C132.938 81.228 132.932 81.366 132.92 81.498C132.908 81.618 132.896 81.72 132.884 81.804L125.342 81.804C125.378 82.356 125.528 82.842 125.792 83.262C126.068 83.67 126.416 83.994 126.836 84.234C127.256 84.462 127.706 84.576 128.186 84.576C128.714 84.576 129.212 84.444 129.68 84.18C130.16 83.916 130.484 83.568 130.652 83.136L132.344 83.622C132.14 84.078 131.828 84.492 131.408 84.864C131 85.224 130.514 85.512 129.95 85.728C129.386 85.932 128.774 86.034 128.114 86.034ZM125.288 80.49L130.976 80.49C130.94 79.95 130.784 79.476 130.508 79.068C130.244 78.648 129.902 78.324 129.482 78.096C129.074 77.856 128.618 77.736 128.114 77.736C127.622 77.736 127.166 77.856 126.746 78.096C126.338 78.324 126.002 78.648 125.738 79.068C125.474 79.476 125.324 79.95 125.288 80.49Z" fill="#030712" fill-opacity="0.600000" fill-rule="evenodd"/>
	<path id="9:00 PM" d="M675.612 80.004C675.612 79.188 675.816 78.444 676.224 77.772C676.632 77.1 677.184 76.566 677.88 76.17C678.588 75.774 679.374 75.576 680.238 75.576C681.174 75.576 681.99 75.804 682.686 76.26C683.382 76.704 683.922 77.352 684.306 78.204C684.702 79.044 684.9 80.058 684.9 81.246C684.9 82.878 684.696 84.24 684.288 85.332C683.892 86.424 683.328 87.246 682.596 87.798C681.864 88.35 681.006 88.626 680.022 88.626C679.218 88.626 678.474 88.434 677.79 88.05C677.106 87.678 676.554 87.156 676.134 86.484L677.304 85.26C677.58 85.752 677.964 86.148 678.456 86.448C678.948 86.748 679.482 86.898 680.058 86.898C680.658 86.898 681.18 86.724 681.624 86.376C682.068 86.04 682.41 85.548 682.65 84.9C682.902 84.252 683.034 83.466 683.046 82.542C682.878 82.89 682.644 83.196 682.344 83.46C682.044 83.724 681.696 83.928 681.3 84.072C680.916 84.216 680.496 84.288 680.04 84.288C679.212 84.288 678.462 84.096 677.79 83.712C677.118 83.328 676.584 82.818 676.188 82.182C675.804 81.534 675.612 80.808 675.612 80.004ZM680.22 77.268C679.728 77.268 679.272 77.394 678.852 77.646C678.444 77.886 678.114 78.216 677.862 78.636C677.622 79.044 677.502 79.5 677.502 80.004C677.502 80.496 677.622 80.946 677.862 81.354C678.114 81.762 678.444 82.092 678.852 82.344C679.272 82.584 679.728 82.704 680.22 82.704C680.724 82.704 681.18 82.584 681.588 82.344C681.996 82.092 682.32 81.762 682.56 81.354C682.812 80.946 682.938 80.496 682.938 80.004C682.938 79.512 682.812 79.056 682.56 78.636C682.308 78.216 681.978 77.886 681.57 77.646C681.162 77.394 680.712 77.268 680.22 77.268ZM686.788 78.816L686.788 76.53L688.426 76.53L688.426 78.816L686.788 78.816ZM686.788 85.854L686.788 83.55L688.426 83.55L688.426 85.854L686.788 85.854ZM699.741 80.58C699.741 81.636 699.537 82.578 699.129 83.406C698.733 84.222 698.187 84.864 697.491 85.332C696.807 85.8 696.021 86.034 695.133 86.034C694.257 86.034 693.471 85.8 692.775 85.332C692.079 84.864 691.527 84.222 691.119 83.406C690.723 82.578 690.525 81.636 690.525 80.58C690.525 79.524 690.723 78.588 691.119 77.772C691.527 76.944 692.079 76.296 692.775 75.828C693.471 75.348 694.257 75.108 695.133 75.108C696.021 75.108 696.807 75.348 697.491 75.828C698.187 76.296 698.733 76.944 699.129 77.772C699.537 78.588 699.741 79.524 699.741 80.58ZM697.725 80.58C697.725 79.86 697.617 79.23 697.401 78.69C697.185 78.138 696.879 77.712 696.483 77.412C696.087 77.1 695.637 76.944 695.133 76.944C694.617 76.944 694.161 77.1 693.765 77.412C693.369 77.712 693.057 78.138 692.829 78.69C692.613 79.23 692.505 79.86 692.505 80.58C692.505 81.3 692.613 81.93 692.829 82.47C693.057 83.01 693.369 83.436 693.765 83.748C694.161 84.048 694.617 84.198 695.133 84.198C695.637 84.198 696.081 84.048 696.465 83.748C696.861 83.436 697.167 83.01 697.383 82.47C697.611 81.93 697.725 81.3 697.725 80.58ZM710.798 80.58C710.798 81.636 710.594 82.578 710.186 83.406C709.79 84.222 709.244 84.864 708.548 85.332C707.864 85.8 707.078 86.034 706.19 86.034C705.314 86.034 704.528 85.8 703.832 85.332C703.136 84.864 702.584 84.222 702.176 83.406C701.78 82.578 701.582 81.636 701.582 80.58C701.582 79.524 701.78 78.588 702.176 77.772C702.584 76.944 703.136 76.296 703.832 75.828C704.528 75.348 705.314 75.108 706.19 75.108C707.078 75.108 707.864 75.348 708.548 75.828C709.244 76.296 709.79 76.944 710.186 77.772C710.594 78.588 710.798 79.524 710.798 80.58ZM708.782 80.58C708.782 79.86 708.674 79.23 708.458 78.69C708.242 78.138 707.936 77.712 707.54 77.412C707.144 77.1 706.694 76.944 706.19 76.944C705.674 76.944 705.218 77.1 704.822 77.412C704.426 77.712 704.114 78.138 703.886 78.69C703.67 79.23 703.562 79.86 703.562 80.58C703.562 81.3 703.67 81.93 703.886 82.47C704.114 83.01 704.426 83.436 704.822 83.748C705.218 84.048 705.674 84.198 706.19 84.198C706.694 84.198 707.138 84.048 707.522 83.748C707.918 83.436 708.224 83.01 708.44 82.47C708.668 81.93 708.782 81.3 708.782 80.58ZM717.608 85.854L717.608 73.074L722.972 73.074C723.548 73.074 724.076 73.194 724.556 73.434C725.036 73.674 725.456 73.992 725.816 74.388C726.176 74.784 726.452 75.228 726.644 75.72C726.836 76.212 726.932 76.716 726.932 77.232C726.932 77.94 726.77 78.618 726.446 79.266C726.134 79.902 725.684 80.418 725.096 80.814C724.52 81.21 723.848 81.408 723.08 81.408L719.624 81.408L719.624 85.854L717.608 85.854ZM719.624 79.626L722.954 79.626C723.338 79.626 723.674 79.524 723.962 79.32C724.25 79.104 724.472 78.816 724.628 78.456C724.796 78.096 724.88 77.688 724.88 77.232C724.88 76.764 724.784 76.35 724.592 75.99C724.4 75.63 724.148 75.354 723.836 75.162C723.536 74.958 723.206 74.856 722.846 74.856L719.624 74.856L719.624 79.626ZM739.569 85.854L739.569 76.746L735.807 83.658L734.619 83.658L730.839 76.746L730.839 85.854L728.823 85.854L728.823 73.074L730.983 73.074L735.213 80.886L739.443 73.074L741.603 73.074L741.603 85.854L739.569 85.854Z" fill="#030712" fill-opacity="1.000000" fill-rule="evenodd"/>
	<line id="Line 1" x1="0.000000" y1="44.500000" x2="744.000000" y2="44.500000" stroke="#030712" stroke-opacity="0.200000" stroke-width="1.000000" stroke-dasharray="5.000000,5.000000"/>
	<line id="Line 2" x1="0.000000" y1="113.500000" x2="744.000000" y2="113.500000" stroke="#030712" stroke-opacity="0.200000" stroke-width="1.000000" stroke-dasharray="5.000000,5.000000"/>
	<rect id="Rectangle 11" y="138.000000" rx="12.000000" width="232.000000" height="56.000000" fill="#030712" fill-opacity="0.050000"/>
	<path id="Boarding Point - Laxmipur" d="M17.2773 173L21.7383 173C24.4414 173 25.6641 171.652 25.6641 169.871C25.6641 168.066 24.4023 167.051 23.25 166.988L23.25 166.875C24.3164 166.602 25.2109 165.875 25.2109 164.422C25.2109 162.699 24.0156 161.363 21.5391 161.363L17.2773 161.363L17.2773 173ZM19.0352 171.496L19.0352 167.766L21.6289 167.766C23.0391 167.766 23.9219 168.676 23.9219 169.785C23.9219 170.762 23.2539 171.496 21.5664 171.496L19.0352 171.496ZM19.0352 166.398L19.0352 162.859L21.4336 162.859C22.8242 162.859 23.4883 163.59 23.4883 164.559C23.4883 165.684 22.5664 166.398 21.3867 166.398L19.0352 166.398ZM31.2823 173.176C33.7433 173.176 35.3526 171.375 35.3526 168.676C35.3526 165.961 33.7433 164.16 31.2823 164.16C28.8253 164.16 27.2159 165.961 27.2159 168.676C27.2159 171.375 28.8253 173.176 31.2823 173.176ZM31.2901 171.75C29.6808 171.75 28.9308 170.348 28.9308 168.672C28.9308 167 29.6808 165.578 31.2901 165.578C32.8878 165.578 33.6378 167 33.6378 168.672C33.6378 170.348 32.8878 171.75 31.2901 171.75ZM39.7859 173.191C41.2273 173.191 42.0398 172.461 42.364 171.809L42.4304 171.809L42.4304 173L44.0906 173L44.0906 167.203C44.0906 164.664 42.0906 164.16 40.7038 164.16C39.1257 164.16 37.6687 164.797 37.1023 166.387L38.6999 166.75C38.9499 166.129 39.5866 165.535 40.7273 165.535C41.8249 165.535 42.3874 166.109 42.3874 167.098L42.3874 167.137C42.3874 167.754 41.7507 167.746 40.1804 167.926C38.5281 168.121 36.8366 168.551 36.8366 170.535C36.8366 172.25 38.1257 173.191 39.7859 173.191ZM40.1531 171.828C39.1921 171.828 38.5007 171.398 38.5007 170.559C38.5007 169.648 39.3054 169.324 40.2898 169.191C40.8406 169.121 42.1491 168.973 42.3913 168.727L42.3913 169.852C42.3913 170.887 41.5671 171.828 40.1531 171.828ZM46.3509 173L48.0501 173L48.0501 167.672C48.0501 166.527 48.9329 165.703 50.136 165.703C50.4876 165.703 50.886 165.766 51.0227 165.809L51.0227 164.184C50.8509 164.16 50.5188 164.141 50.3001 164.141C49.2766 164.141 48.4016 164.723 48.0852 165.66L47.9954 165.66L47.9954 164.273L46.3509 164.273L46.3509 173ZM55.4499 173.172C57.0398 173.172 57.6648 172.199 57.9734 171.641L58.114 171.641L58.114 173L59.7741 173L59.7741 161.363L58.0749 161.363L58.0749 165.688L57.9734 165.688C57.6648 165.148 57.0866 164.16 55.4616 164.16C53.3523 164.16 51.8015 165.824 51.8015 168.652C51.8015 171.477 53.3288 173.172 55.4499 173.172ZM55.8249 171.723C54.3054 171.723 53.5163 170.387 53.5163 168.637C53.5163 166.902 54.2898 165.602 55.8249 165.602C57.3054 165.602 58.1023 166.812 58.1023 168.637C58.1023 170.473 57.2898 171.723 55.8249 171.723ZM62.1918 173L63.891 173L63.891 164.273L62.1918 164.273L62.1918 173ZM63.0511 162.926C63.6371 162.926 64.1254 162.473 64.1254 161.914C64.1254 161.359 63.6371 160.898 63.0511 160.898C62.4613 160.898 61.9769 161.359 61.9769 161.914C61.9769 162.473 62.4613 162.926 63.0511 162.926ZM67.8739 167.816C67.8739 166.426 68.7255 165.629 69.9091 165.629C71.0614 165.629 71.7607 166.387 71.7607 167.652L71.7607 173L73.4599 173L73.4599 167.449C73.4599 165.289 72.2724 164.16 70.4872 164.16C69.1747 164.16 68.3192 164.766 67.913 165.691L67.8075 165.691L67.8075 164.273L66.1747 164.273L66.1747 173L67.8739 173L67.8739 167.816ZM79.3917 176.453C81.6143 176.453 83.3292 175.438 83.3292 173.191L83.3292 164.273L81.6651 164.273L81.6651 165.688L81.5401 165.688C81.2393 165.148 80.6378 164.16 79.0128 164.16C76.9034 164.16 75.3526 165.824 75.3526 168.602C75.3526 171.387 76.9386 172.871 79.0011 172.871C80.6026 172.871 81.2198 171.965 81.5284 171.41L81.6378 171.41L81.6378 173.125C81.6378 174.496 80.7003 175.086 79.4073 175.086C77.9933 175.086 77.4425 174.375 77.1417 173.875L75.6808 174.477C76.1417 175.547 77.3058 176.453 79.3917 176.453ZM79.3761 171.461C77.8565 171.461 77.0675 170.297 77.0675 168.578C77.0675 166.902 77.8409 165.602 79.3761 165.602C80.8565 165.602 81.6534 166.812 81.6534 168.578C81.6534 170.379 80.8409 171.461 79.3761 171.461ZM89.9819 173L91.7397 173L91.7397 168.91L94.1264 168.91C96.8256 168.91 98.1577 167.277 98.1577 165.129C98.1577 162.988 96.8335 161.363 94.1303 161.363L89.9819 161.363L89.9819 173ZM91.7397 167.422L91.7397 162.871L93.9428 162.871C95.6811 162.871 96.3921 163.812 96.3921 165.129C96.3921 166.449 95.6811 167.422 93.9663 167.422L91.7397 167.422ZM103.64 173.176C106.101 173.176 107.711 171.375 107.711 168.676C107.711 165.961 106.101 164.16 103.64 164.16C101.183 164.16 99.5739 165.961 99.5739 168.676C99.5739 171.375 101.183 173.176 103.64 173.176ZM103.648 171.75C102.039 171.75 101.289 170.348 101.289 168.672C101.289 167 102.039 165.578 103.648 165.578C105.246 165.578 105.996 167 105.996 168.672C105.996 170.348 105.246 171.75 103.648 171.75ZM109.601 173L111.3 173L111.3 164.273L109.601 164.273L109.601 173ZM110.46 162.926C111.046 162.926 111.534 162.473 111.534 161.914C111.534 161.359 111.046 160.898 110.46 160.898C109.87 160.898 109.386 161.359 109.386 161.914C109.386 162.473 109.87 162.926 110.46 162.926ZM115.283 167.816C115.283 166.426 116.135 165.629 117.318 165.629C118.471 165.629 119.17 166.387 119.17 167.652L119.17 173L120.869 173L120.869 167.449C120.869 165.289 119.681 164.16 117.896 164.16C116.584 164.16 115.728 164.766 115.322 165.691L115.217 165.691L115.217 164.273L113.584 164.273L113.584 173L115.283 173L115.283 167.816ZM127.215 164.273L125.426 164.273L125.426 162.184L123.727 162.184L123.727 164.273L122.449 164.273L122.449 165.637L123.727 165.637L123.727 170.789C123.723 172.375 124.934 173.141 126.273 173.113C126.813 173.109 127.176 173.004 127.375 172.934L127.066 171.527C126.953 171.551 126.746 171.602 126.473 171.602C125.922 171.602 125.426 171.422 125.426 170.438L125.426 165.637L127.215 165.637L127.215 164.273ZM138.473 166.449L133.312 166.449L133.312 167.922L138.473 167.922L138.473 166.449ZM145.113 173L152.144 173L152.144 171.488L146.87 171.488L146.87 161.363L145.113 161.363L145.113 173ZM156.547 173.191C157.989 173.191 158.801 172.461 159.125 171.809L159.192 171.809L159.192 173L160.852 173L160.852 167.203C160.852 164.664 158.852 164.16 157.465 164.16C155.887 164.16 154.43 164.797 153.864 166.387L155.461 166.75C155.711 166.129 156.348 165.535 157.489 165.535C158.586 165.535 159.149 166.109 159.149 167.098L159.149 167.137C159.149 167.754 158.512 167.746 156.942 167.926C155.289 168.121 153.598 168.551 153.598 170.535C153.598 172.25 154.887 173.191 156.547 173.191ZM156.914 171.828C155.953 171.828 155.262 171.398 155.262 170.559C155.262 169.648 156.067 169.324 157.051 169.191C157.602 169.121 158.911 168.973 159.153 168.727L159.153 169.852C159.153 170.887 158.328 171.828 156.914 171.828ZM164.456 164.273L162.593 164.273L165.272 168.637L162.558 173L164.421 173L166.382 169.738L168.347 173L170.206 173L167.46 168.637L170.183 164.273L168.323 164.273L166.382 167.672L164.456 164.273ZM171.93 173L173.63 173L173.63 167.621C173.63 166.441 174.454 165.625 175.419 165.625C176.364 165.625 177.016 166.25 177.016 167.199L177.016 173L178.712 173L178.712 167.438C178.712 166.387 179.352 165.625 180.462 165.625C181.356 165.625 182.098 166.125 182.098 167.309L182.098 173L183.794 173L183.794 167.148C183.794 165.152 182.68 164.16 181.102 164.16C179.848 164.16 178.903 164.762 178.481 165.691L178.391 165.691C178.012 164.738 177.212 164.16 176.044 164.16C174.891 164.16 174.036 164.734 173.669 165.691L173.563 165.691L173.563 164.273L171.93 164.273L171.93 173ZM186.067 173L187.766 173L187.766 164.273L186.067 164.273L186.067 173ZM186.926 162.926C187.512 162.926 188 162.473 188 161.914C188 161.359 187.512 160.898 186.926 160.898C186.336 160.898 185.852 161.359 185.852 161.914C185.852 162.473 186.336 162.926 186.926 162.926ZM190.05 176.273L191.749 176.273L191.749 171.641L191.851 171.641C192.159 172.199 192.784 173.172 194.374 173.172C196.487 173.172 198.022 171.477 198.022 168.652C198.022 165.824 196.468 164.16 194.358 164.16C192.737 164.16 192.155 165.148 191.851 165.688L191.71 165.688L191.71 164.273L190.05 164.273L190.05 176.273ZM191.718 168.637C191.718 166.812 192.511 165.602 193.995 165.602C195.534 165.602 196.308 166.902 196.308 168.637C196.308 170.387 195.511 171.723 193.995 171.723C192.534 171.723 191.718 170.473 191.718 168.637ZM205.456 169.379C205.46 170.863 204.358 171.566 203.405 171.566C202.351 171.566 201.624 170.809 201.624 169.621L201.624 164.273L199.925 164.273L199.925 169.824C199.925 171.988 201.112 173.113 202.788 173.113C204.101 173.113 204.995 172.422 205.397 171.488L205.487 171.488L205.487 173L207.159 173L207.159 164.273L205.456 164.273L205.456 169.379ZM209.436 173L211.135 173L211.135 167.672C211.135 166.527 212.018 165.703 213.221 165.703C213.573 165.703 213.971 165.766 214.108 165.809L214.108 164.184C213.936 164.16 213.604 164.141 213.385 164.141C212.362 164.141 211.487 164.723 211.17 165.66L211.081 165.66L211.081 164.273L209.436 164.273L209.436 173Z" fill="#030712" fill-opacity="0.800000" fill-rule="evenodd"/>
	<rect id="Rectangle 11" x="256.000000" y="138.000000" rx="12.000000" width="232.000000" height="56.000000" fill="#030712" fill-opacity="0.050000"/>
	<path id="Dropping Point - Bogura" d="M285.047 173C288.59 173 290.641 170.801 290.641 167.164C290.641 163.547 288.59 161.363 285.164 161.363L281.277 161.363L281.277 173L285.047 173ZM283.035 171.465L283.035 162.898L285.059 162.898C287.602 162.898 288.914 164.422 288.914 167.164C288.914 169.922 287.602 171.465 284.949 171.465L283.035 171.465ZM292.686 173L294.385 173L294.385 167.672C294.385 166.527 295.268 165.703 296.471 165.703C296.823 165.703 297.221 165.766 297.358 165.809L297.358 164.184C297.186 164.16 296.854 164.141 296.635 164.141C295.612 164.141 294.737 164.723 294.42 165.66L294.331 165.66L294.331 164.273L292.686 164.273L292.686 173ZM302.191 173.176C304.652 173.176 306.262 171.375 306.262 168.676C306.262 165.961 304.652 164.16 302.191 164.16C299.734 164.16 298.125 165.961 298.125 168.676C298.125 171.375 299.734 173.176 302.191 173.176ZM302.199 171.75C300.59 171.75 299.84 170.348 299.84 168.672C299.84 167 300.59 165.578 302.199 165.578C303.797 165.578 304.547 167 304.547 168.672C304.547 170.348 303.797 171.75 302.199 171.75ZM308.152 176.273L309.851 176.273L309.851 171.641L309.953 171.641C310.261 172.199 310.886 173.172 312.476 173.172C314.589 173.172 316.125 171.477 316.125 168.652C316.125 165.824 314.57 164.16 312.461 164.16C310.839 164.16 310.257 165.148 309.953 165.688L309.812 165.688L309.812 164.273L308.152 164.273L308.152 176.273ZM309.82 168.637C309.82 166.812 310.613 165.602 312.097 165.602C313.636 165.602 314.41 166.902 314.41 168.637C314.41 170.387 313.613 171.723 312.097 171.723C310.636 171.723 309.82 170.473 309.82 168.637ZM318.027 176.273L319.726 176.273L319.726 171.641L319.828 171.641C320.136 172.199 320.761 173.172 322.351 173.172C324.464 173.172 326 171.477 326 168.652C326 165.824 324.445 164.16 322.336 164.16C320.714 164.16 320.132 165.148 319.828 165.688L319.687 165.688L319.687 164.273L318.027 164.273L318.027 176.273ZM319.695 168.637C319.695 166.812 320.488 165.602 321.972 165.602C323.511 165.602 324.285 166.902 324.285 168.637C324.285 170.387 323.488 171.723 321.972 171.723C320.511 171.723 319.695 170.473 319.695 168.637ZM327.902 173L329.601 173L329.601 164.273L327.902 164.273L327.902 173ZM328.761 162.926C329.347 162.926 329.836 162.473 329.836 161.914C329.836 161.359 329.347 160.898 328.761 160.898C328.172 160.898 327.687 161.359 327.687 161.914C327.687 162.473 328.172 162.926 328.761 162.926ZM333.584 167.816C333.584 166.426 334.436 165.629 335.619 165.629C336.772 165.629 337.471 166.387 337.471 167.652L337.471 173L339.17 173L339.17 167.449C339.17 165.289 337.983 164.16 336.197 164.16C334.885 164.16 334.029 164.766 333.623 165.691L333.518 165.691L333.518 164.273L331.885 164.273L331.885 173L333.584 173L333.584 167.816ZM345.102 176.453C347.325 176.453 349.039 175.438 349.039 173.191L349.039 164.273L347.375 164.273L347.375 165.688L347.25 165.688C346.95 165.148 346.348 164.16 344.723 164.16C342.614 164.16 341.063 165.824 341.063 168.602C341.063 171.387 342.649 172.871 344.711 172.871C346.313 172.871 346.93 171.965 347.239 171.41L347.348 171.41L347.348 173.125C347.348 174.496 346.411 175.086 345.118 175.086C343.703 175.086 343.153 174.375 342.852 173.875L341.391 174.477C341.852 175.547 343.016 176.453 345.102 176.453ZM345.086 171.461C343.567 171.461 342.778 170.297 342.778 168.578C342.778 166.902 343.551 165.602 345.086 165.602C346.567 165.602 347.364 166.812 347.364 168.578C347.364 170.379 346.551 171.461 345.086 171.461ZM355.692 173L357.45 173L357.45 168.91L359.837 168.91C362.536 168.91 363.868 167.277 363.868 165.129C363.868 162.988 362.544 161.363 359.841 161.363L355.692 161.363L355.692 173ZM357.45 167.422L357.45 162.871L359.653 162.871C361.391 162.871 362.102 163.812 362.102 165.129C362.102 166.449 361.391 167.422 359.677 167.422L357.45 167.422ZM369.35 173.176C371.811 173.176 373.421 171.375 373.421 168.676C373.421 165.961 371.811 164.16 369.35 164.16C366.893 164.16 365.284 165.961 365.284 168.676C365.284 171.375 366.893 173.176 369.35 173.176ZM369.358 171.75C367.749 171.75 366.999 170.348 366.999 168.672C366.999 167 367.749 165.578 369.358 165.578C370.956 165.578 371.706 167 371.706 168.672C371.706 170.348 370.956 171.75 369.358 171.75ZM375.311 173L377.01 173L377.01 164.273L375.311 164.273L375.311 173ZM376.17 162.926C376.756 162.926 377.245 162.473 377.245 161.914C377.245 161.359 376.756 160.898 376.17 160.898C375.581 160.898 375.096 161.359 375.096 161.914C375.096 162.473 375.581 162.926 376.17 162.926ZM380.993 167.816C380.993 166.426 381.845 165.629 383.028 165.629C384.181 165.629 384.88 166.387 384.88 167.652L384.88 173L386.579 173L386.579 167.449C386.579 165.289 385.392 164.16 383.607 164.16C382.294 164.16 381.439 164.766 381.032 165.691L380.927 165.691L380.927 164.273L379.294 164.273L379.294 173L380.993 173L380.993 167.816ZM392.925 164.273L391.136 164.273L391.136 162.184L389.437 162.184L389.437 164.273L388.159 164.273L388.159 165.637L389.437 165.637L389.437 170.789C389.433 172.375 390.644 173.141 391.984 173.113C392.523 173.109 392.886 173.004 393.085 172.934L392.777 171.527C392.663 171.551 392.456 171.602 392.183 171.602C391.632 171.602 391.136 171.422 391.136 170.438L391.136 165.637L392.925 165.637L392.925 164.273ZM404.183 166.449L399.023 166.449L399.023 167.922L404.183 167.922L404.183 166.449ZM410.823 173L415.284 173C417.987 173 419.21 171.652 419.21 169.871C419.21 168.066 417.948 167.051 416.795 166.988L416.795 166.875C417.862 166.602 418.756 165.875 418.756 164.422C418.756 162.699 417.561 161.363 415.085 161.363L410.823 161.363L410.823 173ZM412.581 171.496L412.581 167.766L415.174 167.766C416.585 167.766 417.467 168.676 417.467 169.785C417.467 170.762 416.799 171.496 415.112 171.496L412.581 171.496ZM412.581 166.398L412.581 162.859L414.979 162.859C416.37 162.859 417.034 163.59 417.034 164.559C417.034 165.684 416.112 166.398 414.932 166.398L412.581 166.398ZM424.828 173.176C427.289 173.176 428.898 171.375 428.898 168.676C428.898 165.961 427.289 164.16 424.828 164.16C422.371 164.16 420.761 165.961 420.761 168.676C420.761 171.375 422.371 173.176 424.828 173.176ZM424.836 171.75C423.226 171.75 422.476 170.348 422.476 168.672C422.476 167 423.226 165.578 424.836 165.578C426.433 165.578 427.183 167 427.183 168.672C427.183 170.348 426.433 171.75 424.836 171.75ZM434.449 176.453C436.671 176.453 438.386 175.438 438.386 173.191L438.386 164.273L436.722 164.273L436.722 165.688L436.597 165.688C436.296 165.148 435.695 164.16 434.07 164.16C431.96 164.16 430.409 165.824 430.409 168.602C430.409 171.387 431.995 172.871 434.058 172.871C435.659 172.871 436.277 171.965 436.585 171.41L436.695 171.41L436.695 173.125C436.695 174.496 435.757 175.086 434.464 175.086C433.05 175.086 432.499 174.375 432.199 173.875L430.738 174.477C431.199 175.547 432.363 176.453 434.449 176.453ZM434.433 171.461C432.913 171.461 432.124 170.297 432.124 168.578C432.124 166.902 432.898 165.602 434.433 165.602C435.913 165.602 436.71 166.812 436.71 168.578C436.71 170.379 435.898 171.461 434.433 171.461ZM446.195 169.379C446.199 170.863 445.097 171.566 444.144 171.566C443.089 171.566 442.363 170.809 442.363 169.621L442.363 164.273L440.663 164.273L440.663 169.824C440.663 171.988 441.851 173.113 443.527 173.113C444.839 173.113 445.734 172.422 446.136 171.488L446.226 171.488L446.226 173L447.898 173L447.898 164.273L446.195 164.273L446.195 169.379ZM450.175 173L451.874 173L451.874 167.672C451.874 166.527 452.757 165.703 453.96 165.703C454.311 165.703 454.71 165.766 454.847 165.809L454.847 164.184C454.675 164.16 454.343 164.141 454.124 164.141C453.101 164.141 452.226 164.723 451.909 165.66L451.819 165.66L451.819 164.273L450.175 164.273L450.175 173ZM458.786 173.191C460.227 173.191 461.04 172.461 461.364 171.809L461.43 171.809L461.43 173L463.091 173L463.091 167.203C463.091 164.664 461.091 164.16 459.704 164.16C458.126 164.16 456.669 164.797 456.102 166.387L457.7 166.75C457.95 166.129 458.587 165.535 459.727 165.535C460.825 165.535 461.387 166.109 461.387 167.098L461.387 167.137C461.387 167.754 460.751 167.746 459.18 167.926C457.528 168.121 455.837 168.551 455.837 170.535C455.837 172.25 457.126 173.191 458.786 173.191ZM459.153 171.828C458.192 171.828 457.501 171.398 457.501 170.559C457.501 169.648 458.305 169.324 459.29 169.191C459.841 169.121 461.149 168.973 461.391 168.727L461.391 169.852C461.391 170.887 460.567 171.828 459.153 171.828Z" fill="#030712" fill-opacity="0.800000" fill-rule="evenodd"/>
	<rect id="Rectangle 11" x="512.000000" y="138.000000" rx="12.000000" width="232.000000" height="56.000000" fill="#030712" fill-opacity="0.050000"/>
	<path id="Est. Time - 11 Hour" d="M557.277 173L564.641 173L564.641 171.488L559.035 171.488L559.035 167.926L564.191 167.926L564.191 166.422L559.035 166.422L559.035 162.875L564.574 162.875L564.574 161.363L557.277 161.363L557.277 173ZM573.331 166.402C572.976 165.047 571.913 164.16 570.027 164.16C568.058 164.16 566.659 165.199 566.659 166.746C566.659 167.984 567.409 168.809 569.046 169.172L570.523 169.496C571.363 169.684 571.757 170.059 571.757 170.602C571.757 171.277 571.034 171.809 569.921 171.809C568.902 171.809 568.249 171.371 568.046 170.512L566.402 170.762C566.687 172.309 567.972 173.176 569.933 173.176C572.038 173.176 573.499 172.059 573.499 170.477C573.499 169.246 572.714 168.484 571.113 168.113L569.726 167.797C568.769 167.566 568.351 167.246 568.359 166.652C568.351 165.984 569.081 165.504 570.046 165.504C571.101 165.504 571.589 166.09 571.788 166.676L573.331 166.402ZM579.436 164.273L577.647 164.273L577.647 162.184L575.948 162.184L575.948 164.273L574.671 164.273L574.671 165.637L575.948 165.637L575.948 170.789C575.944 172.375 577.155 173.141 578.495 173.113C579.034 173.109 579.397 173.004 579.597 172.934L579.288 171.527C579.175 171.551 578.968 171.602 578.694 171.602C578.143 171.602 577.647 171.422 577.647 170.438L577.647 165.637L579.436 165.637L579.436 164.273ZM582.432 173.109C583.049 173.109 583.569 172.602 583.569 171.973C583.569 171.352 583.049 170.84 582.432 170.84C581.807 170.84 581.295 171.352 581.295 171.973C581.295 172.602 581.807 173.109 582.432 173.109ZM589.459 162.875L593.084 162.875L593.084 173L594.834 173L594.834 162.875L598.467 162.875L598.467 161.363L589.459 161.363L589.459 162.875ZM600.311 173L602.01 173L602.01 164.273L600.311 164.273L600.311 173ZM601.17 162.926C601.756 162.926 602.245 162.473 602.245 161.914C602.245 161.359 601.756 160.898 601.17 160.898C600.581 160.898 600.096 161.359 600.096 161.914C600.096 162.473 600.581 162.926 601.17 162.926ZM604.294 173L605.993 173L605.993 167.621C605.993 166.441 606.818 165.625 607.782 165.625C608.728 165.625 609.38 166.25 609.38 167.199L609.38 173L611.075 173L611.075 167.438C611.075 166.387 611.716 165.625 612.825 165.625C613.72 165.625 614.462 166.125 614.462 167.309L614.462 173L616.157 173L616.157 167.148C616.157 165.152 615.044 164.16 613.466 164.16C612.212 164.16 611.267 164.762 610.845 165.691L610.755 165.691C610.376 164.738 609.575 164.16 608.407 164.16C607.255 164.16 606.4 164.734 606.032 165.691L605.927 165.691L605.927 164.273L604.294 164.273L604.294 173ZM622.192 173.176C624.098 173.176 625.442 172.238 625.829 170.816L624.223 170.527C623.915 171.352 623.177 171.773 622.212 171.773C620.755 171.773 619.778 170.828 619.731 169.148L625.938 169.148L625.938 168.547C625.938 165.391 624.052 164.16 622.075 164.16C619.641 164.16 618.04 166.012 618.04 168.691C618.04 171.402 619.618 173.176 622.192 173.176ZM619.739 167.875C619.805 166.637 620.704 165.562 622.087 165.562C623.403 165.562 624.266 166.539 624.274 167.875L619.739 167.875ZM637.211 166.449L632.051 166.449L632.051 167.922L637.211 167.922L637.211 166.449ZM648.109 161.363L646.398 161.363L643.496 163.262L643.496 164.941L646.277 163.125L646.347 163.125L646.347 173L648.109 173L648.109 161.363ZM655.672 161.363L653.961 161.363L651.058 163.262L651.058 164.941L653.839 163.125L653.91 163.125L653.91 173L655.672 173L655.672 161.363ZM663.215 173L664.973 173L664.973 167.926L670.773 167.926L670.773 173L672.535 173L672.535 161.363L670.773 161.363L670.773 166.422L664.973 166.422L664.973 161.363L663.215 161.363L663.215 173ZM678.629 173.176C681.09 173.176 682.699 171.375 682.699 168.676C682.699 165.961 681.09 164.16 678.629 164.16C676.172 164.16 674.562 165.961 674.562 168.676C674.562 171.375 676.172 173.176 678.629 173.176ZM678.637 171.75C677.027 171.75 676.277 170.348 676.277 168.672C676.277 167 677.027 165.578 678.637 165.578C680.234 165.578 680.984 167 680.984 168.672C680.984 170.348 680.234 171.75 678.637 171.75ZM690.121 169.379C690.125 170.863 689.023 171.566 688.07 171.566C687.015 171.566 686.289 170.809 686.289 169.621L686.289 164.273L684.589 164.273L684.589 169.824C684.589 171.988 685.777 173.113 687.453 173.113C688.765 173.113 689.66 172.422 690.062 171.488L690.152 171.488L690.152 173L691.824 173L691.824 164.273L690.121 164.273L690.121 169.379ZM694.101 173L695.8 173L695.8 167.672C695.8 166.527 696.683 165.703 697.886 165.703C698.238 165.703 698.636 165.766 698.773 165.809L698.773 164.184C698.601 164.16 698.269 164.141 698.05 164.141C697.027 164.141 696.152 164.723 695.835 165.66L695.745 165.66L695.745 164.273L694.101 164.273L694.101 173Z" fill="#030712" fill-opacity="0.800000" fill-rule="evenodd"/>
</svg>
