<svg width="609.000000" height="28.000000" viewBox="0 0 609 28" fill="none" xmlns="http://www.w3.org/2000/svg" xmlns:xlink="http://www.w3.org/1999/xlink">
	<desc>
			Created with Pixso.
	</desc>
	<defs>
		<clipPath id="clip6_120">
			<rect id="seat-gray" width="28.000000" height="28.000000" fill="white" fill-opacity="0"/>
		</clipPath>
		<clipPath id="clip6_125">
			<rect id="tabler-icon-armchair" width="28.000000" height="28.000000" transform="translate(497.000000 0.000000)" fill="white" fill-opacity="0"/>
		</clipPath>
	</defs>
	<path id="Available" d="M38.5444 20L39.7441 16.5371L44.8594 16.5371L46.0547 20L48.1509 20L43.4399 6.90869L41.1592 6.90869L36.4482 20L38.5444 20ZM40.3198 14.8716L42.2534 9.28613L42.3545 9.28613L44.2837 14.8716L40.3198 14.8716ZM57.057 10.1826L55.0047 10.1826L52.5218 17.7368L52.4208 17.7368L49.9335 10.1826L47.8812 10.1826L51.4496 20L53.493 20L57.057 10.1826ZM61.4168 20.2153C63.0384 20.2153 63.9524 19.3936 64.3172 18.6597L64.3919 18.6597L64.3919 20L66.2595 20L66.2595 13.4785C66.2595 10.6221 64.0095 10.0552 62.4495 10.0552C60.6741 10.0552 59.0349 10.7715 58.3977 12.5601L60.1951 12.9688C60.4763 12.27 61.1926 11.6021 62.4759 11.6021C63.7107 11.6021 64.3435 12.248 64.3435 13.3599L64.3435 13.4038C64.3435 14.0981 63.6272 14.0894 61.8606 14.2915C60.0017 14.5112 58.0989 14.9946 58.0989 17.2271C58.0989 19.1562 59.5491 20.2153 61.4168 20.2153ZM61.8299 18.6816C60.7488 18.6816 59.971 18.1982 59.971 17.2534C59.971 16.2295 60.8762 15.8647 61.9837 15.7153C62.6033 15.6362 64.0755 15.4692 64.3479 15.1924L64.3479 16.458C64.3479 17.6226 63.4207 18.6816 61.8299 18.6816ZM68.8024 20L70.714 20L70.714 10.1826L68.8024 10.1826L68.8024 20ZM69.7692 8.6665C70.4284 8.6665 70.9777 8.15674 70.9777 7.52832C70.9777 6.9043 70.4284 6.38574 69.7692 6.38574C69.1056 6.38574 68.5607 6.9043 68.5607 7.52832C68.5607 8.15674 69.1056 8.6665 69.7692 8.6665ZM75.1948 6.90869L73.2832 6.90869L73.2832 20L75.1948 20L75.1948 6.90869ZM80.6249 20.2153C82.2464 20.2153 83.1605 19.3936 83.5253 18.6597L83.6 18.6597L83.6 20L85.4676 20L85.4676 13.4785C85.4676 10.6221 83.2176 10.0552 81.6576 10.0552C79.8822 10.0552 78.243 10.7715 77.6058 12.5601L79.4032 12.9688C79.6844 12.27 80.4007 11.6021 81.6839 11.6021C82.9188 11.6021 83.5516 12.248 83.5516 13.3599L83.5516 13.4038C83.5516 14.0981 82.8353 14.0894 81.0687 14.2915C79.2098 14.5112 77.307 14.9946 77.307 17.2271C77.307 19.1562 78.7572 20.2153 80.6249 20.2153ZM81.0379 18.6816C79.9569 18.6816 79.1791 18.1982 79.1791 17.2534C79.1791 16.2295 80.0843 15.8647 81.1918 15.7153C81.8114 15.6362 83.2836 15.4692 83.556 15.1924L83.556 16.458C83.556 17.6226 82.6288 18.6816 81.0379 18.6816ZM88.1643 20L90.032 20L90.032 18.4707L90.1902 18.4707C90.5373 19.0991 91.2405 20.1934 93.029 20.1934C95.4065 20.1934 97.1335 18.2861 97.1335 15.1089C97.1335 11.9272 95.3801 10.0552 93.0115 10.0552C91.1877 10.0552 90.5285 11.167 90.1902 11.7734L90.0759 11.7734L90.0759 6.90869L88.1643 6.90869L88.1643 20ZM90.0364 15.0913C90.0364 13.0391 90.9328 11.6768 92.6028 11.6768C94.3342 11.6768 95.2043 13.1401 95.2043 15.0913C95.2043 17.0601 94.3078 18.563 92.6028 18.563C90.9592 18.563 90.0364 17.1567 90.0364 15.0913ZM101.185 6.90869L99.2733 6.90869L99.2733 20L101.185 20L101.185 6.90869ZM107.986 20.1978C110.131 20.1978 111.642 19.1431 112.077 17.5435L110.271 17.2183C109.924 18.1455 109.093 18.6201 108.008 18.6201C106.369 18.6201 105.27 17.5566 105.217 15.667L112.2 15.667L112.2 14.9902C112.2 11.4395 110.078 10.0552 107.854 10.0552C105.116 10.0552 103.315 12.1382 103.315 15.1528C103.315 18.2026 105.09 20.1978 107.986 20.1978ZM105.226 14.2344C105.301 12.8413 106.312 11.6328 107.867 11.6328C109.348 11.6328 110.32 12.7314 110.328 14.2344L105.226 14.2344Z" fill="#030712" fill-opacity="0.500000" fill-rule="evenodd"/>
	<rect id="seat-gray" width="28.000000" height="28.000000" fill="#FFFFFF" fill-opacity="0"/>
	<g clip-path="url(#clip6_120)">
		<path id="Vector" d="M7.48315 13.5168C7.9209 13.9543 8.16675 14.5478 8.16675 15.1667L8.16675 17.5L19.8333 17.5L19.8333 15.1667C19.8333 14.5478 20.0791 13.9543 20.5168 13.5168C20.9543 13.0792 21.5479 12.8333 22.1667 12.8333C22.7854 12.8333 23.3789 13.0792 23.8167 13.5168C24.2542 13.9543 24.5 14.5478 24.5 15.1667L24.5 19.8333C24.5 20.4522 24.2542 21.0457 23.8167 21.4832C23.3789 21.9208 22.7854 22.1667 22.1667 22.1667L5.83325 22.1667C5.2146 22.1667 4.62109 21.9208 4.18335 21.4832C3.74585 21.0457 3.5 20.4522 3.5 19.8333L3.5 15.1667C3.5 14.5478 3.74585 13.9543 4.18335 13.5168C4.62109 13.0792 5.2146 12.8333 5.83325 12.8333C6.45215 12.8333 7.04565 13.0792 7.48315 13.5168ZM5.83325 12.8333L5.83325 7C5.83325 6.07175 6.20215 5.18152 6.8584 4.52512C7.51489 3.86874 8.40503 3.5 9.33325 3.5L18.6667 3.5C19.595 3.5 20.4851 3.86874 21.1416 4.52512C21.7979 5.18152 22.1667 6.07175 22.1667 7L22.1667 12.8333M7 22.1667L7 24.5M21 22.1667L21 24.5" stroke="#030712" stroke-opacity="0.500000" stroke-width="2.000000" stroke-linejoin="round"/>
	</g>
	<path id="Selected" d="M541.578 10.3496L543.481 10.3496C543.424 8.25342 541.574 6.72852 538.911 6.72852C536.287 6.72852 534.27 8.23145 534.27 10.4902C534.27 12.3096 535.575 13.3774 537.68 13.9487L539.227 14.3706C540.625 14.7397 541.706 15.2012 541.706 16.3613C541.706 17.6401 540.484 18.4839 538.805 18.4839C537.285 18.4839 536.019 17.8071 535.9 16.3833L533.918 16.3833C534.05 18.752 535.883 20.2153 538.818 20.2153C541.89 20.2153 543.661 18.5981 543.661 16.3833C543.661 14.0234 541.561 13.1094 539.895 12.7007L538.621 12.3667C537.597 12.1074 536.234 11.6284 536.239 10.3716C536.239 9.25977 537.258 8.43799 538.867 8.43799C540.37 8.43799 541.438 9.14111 541.578 10.3496ZM550.098 20.1978C552.242 20.1978 553.754 19.1431 554.189 17.5435L552.383 17.2183C552.036 18.1455 551.205 18.6201 550.12 18.6201C548.48 18.6201 547.382 17.5566 547.329 15.667L554.312 15.667L554.312 14.9902C554.312 11.4395 552.189 10.0552 549.966 10.0552C547.228 10.0552 545.426 12.1382 545.426 15.1528C545.426 18.2026 547.202 20.1978 550.098 20.1978ZM547.338 14.2344C547.412 12.8413 548.423 11.6328 549.979 11.6328C551.46 11.6328 552.431 12.7314 552.44 14.2344L547.338 14.2344ZM558.35 6.90869L556.438 6.90869L556.438 20L558.35 20L558.35 6.90869ZM565.151 20.1978C567.295 20.1978 568.807 19.1431 569.242 17.5435L567.436 17.2183C567.089 18.1455 566.258 18.6201 565.173 18.6201C563.534 18.6201 562.435 17.5566 562.382 15.667L569.365 15.667L569.365 14.9902C569.365 11.4395 567.243 10.0552 565.019 10.0552C562.281 10.0552 560.479 12.1382 560.479 15.1528C560.479 18.2026 562.255 20.1978 565.151 20.1978ZM562.391 14.2344C562.466 12.8413 563.477 11.6328 565.032 11.6328C566.513 11.6328 567.484 12.7314 567.493 14.2344L562.391 14.2344ZM575.627 20.1978C577.947 20.1978 579.45 18.8047 579.661 16.8931L577.802 16.8931C577.56 17.9565 576.734 18.5806 575.64 18.5806C574.023 18.5806 572.981 17.2314 572.981 15.0913C572.981 12.9863 574.044 11.6636 575.64 11.6636C576.857 11.6636 577.595 12.4326 577.802 13.3511L579.661 13.3511C579.459 11.3691 577.841 10.0552 575.609 10.0552C572.84 10.0552 571.052 12.1382 571.052 15.1353C571.052 18.0972 572.779 20.1978 575.627 20.1978ZM586.296 10.1826L584.283 10.1826L584.283 7.83154L582.371 7.83154L582.371 10.1826L580.934 10.1826L580.934 11.7163L582.371 11.7163L582.371 17.5127C582.367 19.2969 583.729 20.1582 585.237 20.1274C585.843 20.123 586.252 20.0044 586.476 19.9253L586.129 18.3433C586.001 18.3696 585.768 18.4268 585.461 18.4268C584.841 18.4268 584.283 18.2246 584.283 17.1172L584.283 11.7163L586.296 11.7163L586.296 10.1826ZM592.534 20.1978C594.679 20.1978 596.191 19.1431 596.626 17.5435L594.819 17.2183C594.472 18.1455 593.642 18.6201 592.556 18.6201C590.917 18.6201 589.818 17.5566 589.766 15.667L596.749 15.667L596.749 14.9902C596.749 11.4395 594.626 10.0552 592.402 10.0552C589.665 10.0552 587.863 12.1382 587.863 15.1528C587.863 18.2026 589.638 20.1978 592.534 20.1978ZM589.775 14.2344C589.849 12.8413 590.86 11.6328 592.416 11.6328C593.897 11.6328 594.868 12.7314 594.877 14.2344L589.775 14.2344ZM602.553 20.1934C604.342 20.1934 605.045 19.0991 605.392 18.4707L605.55 18.4707L605.55 20L607.418 20L607.418 6.90869L605.506 6.90869L605.506 11.7734L605.392 11.7734C605.045 11.167 604.394 10.0552 602.566 10.0552C600.193 10.0552 598.449 11.9272 598.449 15.1089C598.449 18.2861 600.167 20.1934 602.553 20.1934ZM602.975 18.563C601.265 18.563 600.378 17.0601 600.378 15.0913C600.378 13.1401 601.248 11.6768 602.975 11.6768C604.64 11.6768 605.537 13.0391 605.537 15.0913C605.537 17.1567 604.623 18.563 602.975 18.563Z" fill="#1DD100" fill-opacity="1.000000" fill-rule="evenodd"/>
	<rect id="tabler-icon-armchair" width="28.000000" height="28.000000" transform="translate(497.000000 0.000000)" fill="#FFFFFF" fill-opacity="0"/>
	<g clip-path="url(#clip6_125)">
		<path id="Vector" d="M502.833 7L502.833 12.8333C502.215 12.8333 501.621 13.0792 501.183 13.5168C500.746 13.9543 500.5 14.5478 500.5 15.1667L500.5 19.8333C500.5 20.4522 500.746 21.0457 501.183 21.4832C501.621 21.9208 502.215 22.1667 502.833 22.1667L503 22.1667L503.02 22.1867L504.98 22.1867L505 22.1667L517 22.1667L517.02 22.1867L518.98 22.1867L519 22.1667L519.167 22.1667C519.785 22.1667 520.379 21.9208 520.817 21.4832C521.254 21.0457 521.5 20.4522 521.5 19.8333L521.5 15.1667C521.5 14.5478 521.254 13.9543 520.817 13.5168C520.379 13.0792 519.785 12.8333 519.167 12.8333L519.167 7C519.167 6.07175 518.798 5.18152 518.142 4.52512C517.485 3.86874 516.595 3.5 515.667 3.5L506.333 3.5C505.405 3.5 504.515 3.86874 503.858 4.52512C503.202 5.18152 502.833 6.07175 502.833 7ZM519.167 12.8333C518.548 12.8333 517.954 13.0792 517.517 13.5168C517.079 13.9543 516.833 14.5478 516.833 15.1667L516.833 17.5L505.167 17.5L505.167 15.1667C505.167 14.5478 504.921 13.9543 504.483 13.5168C504.046 13.0792 503.452 12.8333 502.833 12.8333L519.167 12.8333ZM505 24.5L504.98 24.48L503.02 24.48L503 24.5C503 25.06 503.44 25.5 504 25.5C504.56 25.5 505 25.06 505 24.5ZM519 24.5L518.98 24.48L517.02 24.48L517 24.5C517 25.06 517.44 25.5 518 25.5C518.56 25.5 519 25.06 519 24.5Z" fill="#1DD100" fill-opacity="1.000000" fill-rule="evenodd"/>
		<path id="Vector" d="M504.483 13.5168C504.921 13.9543 505.167 14.5478 505.167 15.1667L505.167 17.5L516.833 17.5L516.833 15.1667C516.833 14.5478 517.079 13.9543 517.517 13.5168C517.954 13.0792 518.548 12.8333 519.167 12.8333C519.785 12.8333 520.379 13.0792 520.817 13.5168C521.254 13.9543 521.5 14.5478 521.5 15.1667L521.5 19.8333C521.5 20.4522 521.254 21.0457 520.817 21.4832C520.379 21.9208 519.785 22.1667 519.167 22.1667L502.833 22.1667C502.215 22.1667 501.621 21.9208 501.183 21.4832C500.746 21.0457 500.5 20.4522 500.5 19.8333L500.5 15.1667C500.5 14.5478 500.746 13.9543 501.183 13.5168C501.621 13.0792 502.215 12.8333 502.833 12.8333C503.452 12.8333 504.046 13.0792 504.483 13.5168ZM502.833 12.8333L502.833 7C502.833 6.07175 503.202 5.18152 503.858 4.52512C504.515 3.86874 505.405 3.5 506.333 3.5L515.667 3.5C516.595 3.5 517.485 3.86874 518.142 4.52512C518.798 5.18152 519.167 6.07175 519.167 7L519.167 12.8333M504 22.1667L504 24.5M518 22.1667L518 24.5" stroke="#1DD100" stroke-opacity="1.000000" stroke-width="2.000000" stroke-linejoin="round"/>
	</g>
</svg>
