<svg width="80.000000" height="418.190674" viewBox="0 0 80 418.191" fill="none" xmlns="http://www.w3.org/2000/svg" xmlns:xlink="http://www.w3.org/1999/xlink">
	<desc>
			Created with Pixso.
	</desc>
	<defs/>
	<line id="Line 1" x1="41.000000" y1="64.000000" x2="41.000000" y2="356.000000" stroke="#1DD100" stroke-opacity="1.000000" stroke-width="2.000000" stroke-dasharray="5.000000,5.000000"/>
	<path id="Ellipse 1" d="M0 0C0 10.6087 4.21423 20.7828 11.7157 28.2843C19.2172 35.7857 29.3914 40 40 40C50.6086 40 60.7828 35.7857 68.2843 28.2843C75.7858 20.7828 80 10.6087 80 1.52588e-05L0 0Z" fill="#F7F8F8" fill-opacity="1.000000" fill-rule="nonzero"/>
	<path id="Ellipse 1" d="M80 418.191C80 407.582 75.7858 397.408 68.2843 389.906C60.7828 382.405 50.6086 378.191 40 378.191C29.3914 378.191 19.2172 382.405 11.7157 389.906C4.21423 397.408 0 407.582 0 418.191L80 418.191Z" fill="#F7F8F8" fill-opacity="1.000000" fill-rule="nonzero"/>
</svg>
